<svg xmlns="http://www.w3.org/2000/svg" id="e79d3ec2-1341-4d05-8c65-0552c614ce07" width="963.51" height="773.5" data-name="Layer 1" viewBox="0 0 963.51 773.5"><title>interface</title><rect width="700.83" height="747" x=".139" fill="#3f3d56"/><rect width="661.764" height="706.75" x="39.206" y="40.25" fill="#f2f2f2"/><rect width="207.171" height="21.309" x="25" y="140.876" fill="#3f3d56"/><rect width="207.171" height="21.309" x="25" y="192.965" fill="#3f3d56"/><rect width="207.171" height="21.309" x="25" y="245.054" fill="#3f3d56"/><circle cx="298.466" cy="151.531" r="17.758" fill="#3f3d56"/><circle cx="298.466" cy="203.62" r="17.758" fill="#3f3d56"/><circle cx="298.466" cy="255.708" r="17.758" fill="#3f3d56"/><rect width="518.52" height="306.613" x="110.828" y="387.114" fill="#fff"/><path fill="#3f3d56" d="M234.3057,756.97742q12.18176-2.94782,24.07924-5.61137l-10.96233-41.03177c3.81192-2.36767,20.33828,21.38006,20.33828,21.38006L253.839,613.03487c19.07164,4.74719,27.903,125.80618,27.903,125.80618l21.64054-40.33327-10.66637,45.67238c87.367-17.08273,162.74179-22.37451,226.10067-21.1078L509.429,687.948c3.81191-2.36767,20.33828,21.36821,20.33828,21.36821L515.84539,590.63672c19.07157,4.759,27.903,125.818,27.903,125.818l21.65232-40.34505L554.0951,724.493c53.09506,3.25554,96.36422,11.057,129.73653,19.5806-9.35232-54.58662-42.109-107.0779-42.109-107.0779,25.20382,14.65588,38.30889,38.51019,45.08046,60.61237a1758.32492,1758.32492,0,0,0-14.18239-247.244c-3.45678-26.74286-7.71856-54.43279-12.91561-82.7027.28411,1.19561,8.09739,34.343,17.059,82.7027,13.94561,75.209,30.62581,187.25905,25.9615,273.30018l-.98253,25.29855c9.29307,2.711,17.61547,5.422,24.967,8.01459Z" transform="translate(-118.24522 -63.25)"/><circle cx="200.208" cy="449.857" r="49.721" fill="#e42d42"/><circle cx="298.466" cy="151.531" r="7.103" fill="#e42d42"/><circle cx="298.466" cy="203.62" r="7.103" fill="#e42d42"/><circle cx="298.466" cy="255.708" r="7.103" fill="#e42d42"/><rect width="25.015" height="2.39" x="643.379" y="531.864" fill="#3f3d56"/><path fill="#3f3d56" d="M801.06539,596.3092c-6.78829,2.51879-15.21078,6.81637-20.43161,11.36841l4.112-11.36841-4.112-11.36607C785.85461,589.49516,794.2771,593.79274,801.06539,596.3092Z" transform="translate(-118.24522 -63.25)"/><rect width="25.015" height="2.39" x="70.962" y="531.864" fill="#3f3d56"/><path fill="#3f3d56" d="M174.78059,596.3092c6.78826-2.51879,15.21079-6.81638,20.43162-11.36841l-4.112,11.36841,4.112,11.36607C189.99138,603.12324,181.56885,598.82566,174.78059,596.3092Z" transform="translate(-118.24522 -63.25)"/><circle cx="25.46" cy="20.318" r="8.366" fill="#e42d42"/><circle cx="56.535" cy="20.318" r="8.366" fill="#e42d42"/><circle cx="87.611" cy="20.318" r="8.366" fill="#e42d42"/><rect width="34.661" height="4.781" x="645.769" y="9.562" fill="#f2f2f2"/><rect width="34.661" height="4.781" x="645.769" y="17.928" fill="#f2f2f2"/><rect width="34.661" height="4.781" x="645.769" y="26.294" fill="#f2f2f2"/><rect width="963.51" height="2.241" y="746.13" fill="#2f2e41"/><polygon fill="#ffb8b8" points="770.055 711.5 774.055 731.5 754.055 735.5 757.055 710.5 770.055 711.5"/><polygon fill="#ffb8b8" points="833.055 707.5 828.055 732.5 804.055 732.5 814.055 702.5 833.055 707.5"/><path fill="#2f2e41" d="M973.29979,596.75l4,27-5,59s1,1,0,4,2,5,0,6-4,12-4,12l-17,72s-19,0-22-8l5-41s0-22,2-28,2-5,1-9-6-2-2-5l4-3-6-4-12-56-21,76s-1,25-4,34-7,48-7,48-17,3-18,0-2-74-2-85,6-9,4-13-2-4-2-6,4-1,2-4-9.87861-93.47192-9.87861-93.47192Z" transform="translate(-118.24522 -63.25)"/><path fill="#2f2e41" d="M932.29979,790.75s5,1,8,0,0-7,0-7h11s12,27,17,29,21,24,2,24a62.08571,62.08571,0,0,1-33-10s-2-9-11-10-15-12-15-12l13-24S927.29979,791.75,932.29979,790.75Z" transform="translate(-118.24522 -63.25)"/><path fill="#2f2e41" d="M885.29979,789.75s-2,4-4,2-4-7-4-7-6-3-7,0-5,19-7,21-23,23-2,27,25-5,25-5-3-5,3-7,7-9,7-9l-4-30S888.29979,791.75,885.29979,789.75Z" transform="translate(-118.24522 -63.25)"/><path fill="#ffb8b8" d="M996.29979,526.75l3,52s14,33-5,32-7-33-7-33l-18.60236-46.40945Z" transform="translate(-118.24522 -63.25)"/><path fill="#ffb8b8" d="M842.29979,511.75l-3,52s-14,33,5,32,7-33,7-33l18.60237-46.40945Z" transform="translate(-118.24522 -63.25)"/><circle cx="804.055" cy="309.5" r="26" fill="#ffb8b8"/><path fill="#ffb8b8" d="M942.79979,383.25s-7,28,7,35-44,17-48,0l2-8s8-10,6-19Z" transform="translate(-118.24522 -63.25)"/><path fill="#d0cde1" d="M927.29979,418.75s-17.25516,1.61145-22.62758-9.69428c0,0-40.37242,2.69428-49.37242,39.69428l15,96s4,17-2,21-14,7-12,10c0,0-10,28,82,29l40-2a55.646,55.646,0,0,0-1-17c-2-9-4-8-2-14s1-10,1-10l-12-48s30-47,27-54-7.8044-34.60076-46.4022-45.80038C944.89759,413.94962,944.29979,419.75,927.29979,418.75Z" transform="translate(-118.24522 -63.25)"/><path fill="#d0cde1" d="M978.29979,442.75l13,17s13,71,9,72-28,9-32,6-22-62-22-62Z" transform="translate(-118.24522 -63.25)"/><path fill="#d0cde1" d="M872.29979,437.75l-17,11s-25,70-18,73,46,1,46,1Z" transform="translate(-118.24522 -63.25)"/><path fill="#2f2e41" d="M950.71956,349.482s-9.00567-19.51228-26.26653-15.00944-27.017,11.25708-27.76747,18.01133.37523,16.88563.37523,16.88563,1.87618-13.88374,13.88374-10.88185,30.76936.75047,30.76936.75047l3.00189,27.017s3.37713-4.87807,7.12949-1.87618S962.72711,355.48574,950.71956,349.482Z" transform="translate(-118.24522 -63.25)"/><path fill="#3f3d56" d="M1040.84011,781.00877c10.94518,20.29832,34.17479,29.012,34.17479,29.012s5.484-24.19646-5.46122-44.49478-34.1748-29.012-34.1748-29.012S1029.89492,760.71044,1040.84011,781.00877Z" transform="translate(-118.24522 -63.25)"/><path fill="#e42d42" d="M1048.36315,774.33076c19.76057,11.88861,27.371,35.50267,27.371,35.50267s-24.42779,4.33881-44.18836-7.5498-27.371-35.50267-27.371-35.50267S1028.60258,762.44215,1048.36315,774.33076Z" transform="translate(-118.24522 -63.25)"/></svg>